<svg width="18" height="10" viewBox="0 0 18 10" fill="none" xmlns="http://www.w3.org/2000/svg">
<path d="M0.969759 8.46937L8.46976 0.969374C8.53942 0.899641 8.62213 0.844322 8.71318 0.806579C8.80423 0.768835 8.90182 0.74941 9.00039 0.74941C9.09895 0.74941 9.19654 0.768835 9.28759 0.806579C9.37864 0.844322 9.46136 0.899641 9.53101 0.969374L17.031 8.46937C17.136 8.57427 17.2075 8.70796 17.2365 8.85352C17.2655 8.99908 17.2507 9.14998 17.1939 9.28709C17.137 9.42421 17.0408 9.54139 16.9174 9.62379C16.7939 9.70619 16.6488 9.75012 16.5004 9.75L1.50038 9.75C1.35196 9.75012 1.20684 9.70619 1.0834 9.62379C0.959951 9.54139 0.863733 9.42421 0.806919 9.28709C0.750105 9.14997 0.735251 8.99908 0.764238 8.85352C0.793226 8.70795 0.86475 8.57426 0.969759 8.46937Z" fill="#808080"/>
</svg>
